<mxfile host="65bd71144e">
    <diagram id="lg_cm7hCihnjdDousHc_" name="Home page">
        <mxGraphModel dx="1963" dy="768" grid="1" gridSize="10" guides="1" tooltips="1" connect="1" arrows="1" fold="1" page="1" pageScale="1" pageWidth="827" pageHeight="1169" math="0" shadow="0">
            <root>
                <mxCell id="0"/>
                <mxCell id="1" parent="0"/>
                <mxCell id="4" value="&lt;font style=&quot;font-size: 14px;&quot;&gt;&lt;b&gt;Nav bar&lt;/b&gt;&lt;/font&gt;" style="rounded=1;whiteSpace=wrap;html=1;fillColor=none;" parent="1" vertex="1">
                    <mxGeometry x="157" y="40" width="670" height="60" as="geometry"/>
                </mxCell>
                <mxCell id="5" value="&lt;font style=&quot;font-size: 14px;&quot;&gt;&lt;b&gt;Logo&lt;/b&gt;&lt;/font&gt;" style="rounded=1;whiteSpace=wrap;html=1;fillColor=none;" parent="1" vertex="1">
                    <mxGeometry y="40" width="120" height="60" as="geometry"/>
                </mxCell>
                <mxCell id="6" value="" style="endArrow=none;html=1;" parent="1" edge="1">
                    <mxGeometry width="50" height="50" relative="1" as="geometry">
                        <mxPoint x="2" y="1040" as="sourcePoint"/>
                        <mxPoint x="822" y="1040" as="targetPoint"/>
                        <Array as="points"/>
                    </mxGeometry>
                </mxCell>
                <mxCell id="7" value="&lt;font style=&quot;font-size: 14px;&quot;&gt;Footer&lt;/font&gt;" style="text;html=1;align=center;verticalAlign=middle;resizable=0;points=[];autosize=1;strokeColor=none;fillColor=none;" parent="1" vertex="1">
                    <mxGeometry x="350" y="1088" width="60" height="30" as="geometry"/>
                </mxCell>
                <mxCell id="8" value="" style="rounded=0;whiteSpace=wrap;html=1;fillColor=none;" parent="1" vertex="1">
                    <mxGeometry x="20" y="190" width="790" height="830" as="geometry"/>
                </mxCell>
                <mxCell id="9" value="&lt;font style=&quot;font-size: 14px;&quot;&gt;&lt;b&gt;Event&lt;/b&gt;&lt;/font&gt;" style="rounded=1;whiteSpace=wrap;html=1;fillColor=none;" parent="1" vertex="1">
                    <mxGeometry x="37" y="210" width="233" height="250" as="geometry"/>
                </mxCell>
                <mxCell id="10" value="" style="rounded=1;whiteSpace=wrap;html=1;fillColor=none;" parent="1" vertex="1">
                    <mxGeometry x="550" y="210" width="237" height="250" as="geometry"/>
                </mxCell>
                <mxCell id="12" value="&lt;font style=&quot;font-size: 14px;&quot;&gt;&lt;b&gt;Event&lt;/b&gt;&lt;/font&gt;" style="rounded=1;whiteSpace=wrap;html=1;fillColor=none;" parent="1" vertex="1">
                    <mxGeometry x="37" y="480" width="233" height="250" as="geometry"/>
                </mxCell>
                <mxCell id="13" value="&lt;font style=&quot;font-size: 14px;&quot;&gt;&lt;b&gt;Event&lt;/b&gt;&lt;/font&gt;" style="rounded=1;whiteSpace=wrap;html=1;fillColor=none;" parent="1" vertex="1">
                    <mxGeometry x="37" y="750" width="233" height="250" as="geometry"/>
                </mxCell>
                <mxCell id="14" value="&lt;font style=&quot;font-size: 14px;&quot;&gt;Nav bar hoover&lt;/font&gt;" style="rounded=1;whiteSpace=wrap;html=1;fillColor=none;dashed=1;dashPattern=12 12;" parent="1" vertex="1">
                    <mxGeometry x="30" y="110" width="770" height="60" as="geometry"/>
                </mxCell>
                <mxCell id="1nLQ1H6bds3gtqQaow4C-14" value="" style="rounded=1;whiteSpace=wrap;html=1;fillColor=none;" parent="1" vertex="1">
                    <mxGeometry x="290" y="480" width="236.5" height="250" as="geometry"/>
                </mxCell>
                <mxCell id="1nLQ1H6bds3gtqQaow4C-15" value="" style="rounded=1;whiteSpace=wrap;html=1;fillColor=none;" parent="1" vertex="1">
                    <mxGeometry x="550" y="480" width="236.5" height="250" as="geometry"/>
                </mxCell>
                <mxCell id="1nLQ1H6bds3gtqQaow4C-16" value="" style="rounded=1;whiteSpace=wrap;html=1;fillColor=none;" parent="1" vertex="1">
                    <mxGeometry x="290" y="750" width="236.5" height="250" as="geometry"/>
                </mxCell>
                <mxCell id="1nLQ1H6bds3gtqQaow4C-17" value="" style="rounded=1;whiteSpace=wrap;html=1;fillColor=none;" parent="1" vertex="1">
                    <mxGeometry x="550" y="750" width="236.5" height="250" as="geometry"/>
                </mxCell>
                <mxCell id="zlLH1inz4szsZFbdOeKO-26" value="" style="group" parent="1" vertex="1" connectable="0">
                    <mxGeometry x="290" y="210" width="240" height="250" as="geometry"/>
                </mxCell>
                <mxCell id="zlLH1inz4szsZFbdOeKO-14" value="" style="rounded=1;whiteSpace=wrap;html=1;fillColor=none;" parent="zlLH1inz4szsZFbdOeKO-26" vertex="1">
                    <mxGeometry width="240.00000000000003" height="250" as="geometry"/>
                </mxCell>
                <mxCell id="zlLH1inz4szsZFbdOeKO-15" value="&lt;font style=&quot;font-size: 16px;&quot;&gt;&lt;b style=&quot;&quot;&gt;Title&lt;/b&gt;&lt;/font&gt;" style="text;html=1;align=center;verticalAlign=middle;whiteSpace=wrap;rounded=0;" parent="zlLH1inz4szsZFbdOeKO-26" vertex="1">
                    <mxGeometry x="108.20338983050848" y="10.638297872340425" width="24.40677966101695" height="15.957446808510639" as="geometry"/>
                </mxCell>
                <mxCell id="zlLH1inz4szsZFbdOeKO-16" value="&lt;font style=&quot;font-size: 14px;&quot;&gt;&lt;b&gt;Image&lt;/b&gt;&lt;/font&gt;" style="rounded=1;whiteSpace=wrap;html=1;fillColor=none;dashed=1;dashPattern=12 12;" parent="zlLH1inz4szsZFbdOeKO-26" vertex="1">
                    <mxGeometry x="8.135593220338983" y="53.191489361702125" width="223.72881355932205" height="90.42553191489361" as="geometry"/>
                </mxCell>
                <mxCell id="zlLH1inz4szsZFbdOeKO-17" value="&lt;font style=&quot;font-size: 14px;&quot;&gt;&lt;b&gt;Details&lt;/b&gt;&lt;/font&gt;" style="rounded=1;whiteSpace=wrap;html=1;fillColor=none;container=0;" parent="zlLH1inz4szsZFbdOeKO-26" vertex="1">
                    <mxGeometry x="93.25999999999999" y="218.09" width="53.48" height="20.49" as="geometry"/>
                </mxCell>
                <mxCell id="zlLH1inz4szsZFbdOeKO-19" value="&lt;b&gt;&lt;font style=&quot;font-size: 14px;&quot;&gt;Tag&lt;/font&gt;&lt;/b&gt;" style="text;html=1;align=center;verticalAlign=middle;whiteSpace=wrap;rounded=0;" parent="zlLH1inz4szsZFbdOeKO-26" vertex="1">
                    <mxGeometry x="107.68677966101697" y="31.914893617021278" width="24.40677966101695" height="15.957446808510639" as="geometry"/>
                </mxCell>
                <mxCell id="zlLH1inz4szsZFbdOeKO-21" value="&lt;b&gt;&lt;font style=&quot;font-size: 14px;&quot;&gt;Date&lt;/font&gt;&lt;/b&gt;" style="rounded=1;whiteSpace=wrap;html=1;fillColor=none;" parent="zlLH1inz4szsZFbdOeKO-26" vertex="1">
                    <mxGeometry x="8.542372881355933" y="154.25531914893617" width="105.76271186440678" height="21.27659574468085" as="geometry"/>
                </mxCell>
                <mxCell id="zlLH1inz4szsZFbdOeKO-22" value="&lt;b&gt;&lt;font style=&quot;font-size: 14px;&quot;&gt;Server&lt;/font&gt;&lt;/b&gt;" style="rounded=1;whiteSpace=wrap;html=1;fillColor=none;" parent="zlLH1inz4szsZFbdOeKO-26" vertex="1">
                    <mxGeometry x="122.4406779661017" y="154.25531914893617" width="109.42372881355934" height="21.27659574468085" as="geometry"/>
                </mxCell>
                <mxCell id="zlLH1inz4szsZFbdOeKO-23" value="&lt;b&gt;&lt;font style=&quot;font-size: 14px;&quot;&gt;Duration&lt;/font&gt;&lt;/b&gt;" style="rounded=1;whiteSpace=wrap;html=1;fillColor=none;" parent="zlLH1inz4szsZFbdOeKO-26" vertex="1">
                    <mxGeometry x="8.135593220338983" y="186.17021276595744" width="105.76271186440678" height="21.27659574468085" as="geometry"/>
                </mxCell>
                <mxCell id="zlLH1inz4szsZFbdOeKO-24" value="&lt;b&gt;&lt;font style=&quot;font-size: 14px;&quot;&gt;Max players&lt;/font&gt;&lt;/b&gt;" style="rounded=1;whiteSpace=wrap;html=1;fillColor=none;" parent="zlLH1inz4szsZFbdOeKO-26" vertex="1">
                    <mxGeometry x="122.4406779661017" y="186.17021276595744" width="109.83050847457628" height="21.27659574468085" as="geometry"/>
                </mxCell>
            </root>
        </mxGraphModel>
    </diagram>
    <diagram id="ZDkq31y3oVBq52hEe3XY" name="Profil page">
        <mxGraphModel dx="1963" dy="768" grid="1" gridSize="10" guides="1" tooltips="1" connect="1" arrows="1" fold="1" page="1" pageScale="1" pageWidth="827" pageHeight="1169" math="0" shadow="0">
            <root>
                <mxCell id="0"/>
                <mxCell id="1" parent="0"/>
                <mxCell id="vTd_-6bPDxyqIePIFYxY-1" value="&lt;font style=&quot;font-size: 14px;&quot;&gt;&lt;b&gt;Nav bar&lt;/b&gt;&lt;/font&gt;" style="rounded=1;whiteSpace=wrap;html=1;fillColor=none;" parent="1" vertex="1">
                    <mxGeometry x="157" y="40" width="670" height="60" as="geometry"/>
                </mxCell>
                <mxCell id="vTd_-6bPDxyqIePIFYxY-2" value="&lt;font style=&quot;font-size: 14px;&quot;&gt;&lt;b&gt;Logo&lt;/b&gt;&lt;/font&gt;" style="rounded=1;whiteSpace=wrap;html=1;fillColor=none;" parent="1" vertex="1">
                    <mxGeometry y="40" width="120" height="60" as="geometry"/>
                </mxCell>
                <mxCell id="vTd_-6bPDxyqIePIFYxY-3" value="" style="endArrow=none;html=1;" parent="1" edge="1">
                    <mxGeometry width="50" height="50" relative="1" as="geometry">
                        <mxPoint x="2" y="1040" as="sourcePoint"/>
                        <mxPoint x="822" y="1040" as="targetPoint"/>
                        <Array as="points"/>
                    </mxGeometry>
                </mxCell>
                <mxCell id="vTd_-6bPDxyqIePIFYxY-4" value="&lt;font style=&quot;font-size: 14px;&quot;&gt;Footer&lt;/font&gt;" style="text;html=1;align=center;verticalAlign=middle;resizable=0;points=[];autosize=1;strokeColor=none;fillColor=none;" parent="1" vertex="1">
                    <mxGeometry x="350" y="1088" width="60" height="30" as="geometry"/>
                </mxCell>
                <mxCell id="vTd_-6bPDxyqIePIFYxY-5" value="" style="rounded=0;whiteSpace=wrap;html=1;fillColor=none;" parent="1" vertex="1">
                    <mxGeometry x="20" y="200" width="790" height="820" as="geometry"/>
                </mxCell>
                <mxCell id="vTd_-6bPDxyqIePIFYxY-6" value="&lt;font style=&quot;font-size: 14px;&quot;&gt;Nav bar hoover&lt;/font&gt;" style="rounded=1;whiteSpace=wrap;html=1;fillColor=none;dashed=1;dashPattern=12 12;" parent="1" vertex="1">
                    <mxGeometry x="30" y="110" width="770" height="60" as="geometry"/>
                </mxCell>
                <mxCell id="vTd_-6bPDxyqIePIFYxY-7" value="" style="rounded=0;whiteSpace=wrap;html=1;fillColor=none;" parent="1" vertex="1">
                    <mxGeometry x="37" y="220" width="503" height="330" as="geometry"/>
                </mxCell>
                <mxCell id="vTd_-6bPDxyqIePIFYxY-8" value="" style="rounded=0;whiteSpace=wrap;html=1;fillColor=none;" parent="1" vertex="1">
                    <mxGeometry x="560" y="220" width="230" height="780" as="geometry"/>
                </mxCell>
                <mxCell id="ZCxsOR9MwWEchFKW-z67-1" value="&lt;span style=&quot;font-size: 14px;&quot;&gt;&lt;b&gt;Events in coming&lt;/b&gt;&lt;/span&gt;" style="text;html=1;align=center;verticalAlign=middle;whiteSpace=wrap;rounded=0;" parent="1" vertex="1">
                    <mxGeometry x="612.5" y="230" width="125" height="30" as="geometry"/>
                </mxCell>
                <mxCell id="ZCxsOR9MwWEchFKW-z67-2" value="" style="rounded=1;whiteSpace=wrap;html=1;fillColor=none;" parent="1" vertex="1">
                    <mxGeometry x="570" y="270" width="210" height="170" as="geometry"/>
                </mxCell>
                <mxCell id="ZCxsOR9MwWEchFKW-z67-3" value="" style="rounded=1;whiteSpace=wrap;html=1;fillColor=none;" parent="1" vertex="1">
                    <mxGeometry x="570" y="450" width="210" height="170" as="geometry"/>
                </mxCell>
                <mxCell id="ZCxsOR9MwWEchFKW-z67-4" value="" style="rounded=1;whiteSpace=wrap;html=1;fillColor=none;" parent="1" vertex="1">
                    <mxGeometry x="570" y="630" width="210" height="170" as="geometry"/>
                </mxCell>
                <mxCell id="ZCxsOR9MwWEchFKW-z67-5" value="" style="rounded=1;whiteSpace=wrap;html=1;fillColor=none;" parent="1" vertex="1">
                    <mxGeometry x="570" y="810" width="210" height="170" as="geometry"/>
                </mxCell>
                <mxCell id="ZCxsOR9MwWEchFKW-z67-6" value="" style="rounded=0;whiteSpace=wrap;html=1;fillColor=none;" parent="1" vertex="1">
                    <mxGeometry x="37" y="700" width="503" height="300" as="geometry"/>
                </mxCell>
                <mxCell id="ZCxsOR9MwWEchFKW-z67-7" value="" style="rounded=0;whiteSpace=wrap;html=1;fillColor=none;" parent="1" vertex="1">
                    <mxGeometry x="38.5" y="560" width="503" height="130" as="geometry"/>
                </mxCell>
                <mxCell id="ZCxsOR9MwWEchFKW-z67-8" value="" style="rounded=1;whiteSpace=wrap;html=1;fillColor=none;" parent="1" vertex="1">
                    <mxGeometry x="48.5" y="910" width="480" height="70" as="geometry"/>
                </mxCell>
                <mxCell id="ZCxsOR9MwWEchFKW-z67-9" value="" style="rounded=1;whiteSpace=wrap;html=1;fillColor=none;" parent="1" vertex="1">
                    <mxGeometry x="50" y="830" width="480" height="70" as="geometry"/>
                </mxCell>
                <mxCell id="ZCxsOR9MwWEchFKW-z67-10" value="" style="rounded=1;whiteSpace=wrap;html=1;fillColor=none;" parent="1" vertex="1">
                    <mxGeometry x="50" y="750" width="480" height="70" as="geometry"/>
                </mxCell>
                <mxCell id="ZCxsOR9MwWEchFKW-z67-11" value="&lt;span style=&quot;font-size: 14px;&quot;&gt;&lt;b&gt;Characters&lt;/b&gt;&lt;/span&gt;" style="text;html=1;align=center;verticalAlign=middle;whiteSpace=wrap;rounded=0;" parent="1" vertex="1">
                    <mxGeometry x="227.5" y="710" width="125" height="30" as="geometry"/>
                </mxCell>
                <mxCell id="ZCxsOR9MwWEchFKW-z67-13" value="" style="rounded=1;whiteSpace=wrap;html=1;fillColor=none;" parent="1" vertex="1">
                    <mxGeometry x="50" y="240" width="230" height="290" as="geometry"/>
                </mxCell>
                <mxCell id="ZCxsOR9MwWEchFKW-z67-14" value="" style="rounded=1;whiteSpace=wrap;html=1;fillColor=none;" parent="1" vertex="1">
                    <mxGeometry x="299" y="240" width="230" height="290" as="geometry"/>
                </mxCell>
                <mxCell id="ZCxsOR9MwWEchFKW-z67-15" value="&lt;font style=&quot;font-size: 14px;&quot;&gt;&lt;b&gt;Modiffy username&lt;/b&gt;&lt;/font&gt;" style="rounded=1;whiteSpace=wrap;html=1;fillColor=none;" parent="1" vertex="1">
                    <mxGeometry x="50" y="570" width="230" height="50" as="geometry"/>
                </mxCell>
                <mxCell id="ZCxsOR9MwWEchFKW-z67-16" value="&lt;font style=&quot;font-size: 14px;&quot;&gt;&lt;b&gt;Modify password&lt;/b&gt;&lt;/font&gt;" style="rounded=1;whiteSpace=wrap;html=1;fillColor=none;" parent="1" vertex="1">
                    <mxGeometry x="299" y="570" width="230" height="50" as="geometry"/>
                </mxCell>
                <mxCell id="ZCxsOR9MwWEchFKW-z67-17" value="&lt;font style=&quot;font-size: 14px;&quot;&gt;&lt;b&gt;Modify email&lt;/b&gt;&lt;/font&gt;" style="rounded=1;whiteSpace=wrap;html=1;fillColor=none;" parent="1" vertex="1">
                    <mxGeometry x="50" y="630" width="230" height="50" as="geometry"/>
                </mxCell>
                <mxCell id="ZCxsOR9MwWEchFKW-z67-18" value="&lt;b&gt;Modify avatar&lt;/b&gt;" style="rounded=1;whiteSpace=wrap;html=1;fillColor=none;" parent="1" vertex="1">
                    <mxGeometry x="299" y="630" width="230" height="50" as="geometry"/>
                </mxCell>
                <mxCell id="ZCxsOR9MwWEchFKW-z67-31" value="&lt;font style=&quot;font-size: 14px;&quot;&gt;&lt;b&gt;User Profil&lt;/b&gt;&lt;/font&gt;" style="text;html=1;align=center;verticalAlign=middle;whiteSpace=wrap;rounded=0;" parent="1" vertex="1">
                    <mxGeometry x="127.5" y="250" width="75" height="30" as="geometry"/>
                </mxCell>
                <mxCell id="ZCxsOR9MwWEchFKW-z67-32" value="&lt;font style=&quot;font-size: 14px;&quot;&gt;&lt;b&gt;Default character&lt;/b&gt;&lt;/font&gt;" style="text;html=1;align=center;verticalAlign=middle;whiteSpace=wrap;rounded=0;" parent="1" vertex="1">
                    <mxGeometry x="354.38" y="250" width="121.25" height="30" as="geometry"/>
                </mxCell>
            </root>
        </mxGraphModel>
    </diagram>
    <diagram id="tykTkDSBrMhkCNiQpzAf" name="Character page">
        <mxGraphModel dx="1963" dy="768" grid="1" gridSize="10" guides="1" tooltips="1" connect="1" arrows="1" fold="1" page="1" pageScale="1" pageWidth="827" pageHeight="1169" math="0" shadow="0">
            <root>
                <mxCell id="0"/>
                <mxCell id="1" parent="0"/>
                <mxCell id="rgLIjj8zTQrlLB7u7Nb7-1" value="&lt;font style=&quot;font-size: 14px;&quot;&gt;&lt;b&gt;Nav bar&lt;/b&gt;&lt;/font&gt;" style="rounded=1;whiteSpace=wrap;html=1;fillColor=none;" parent="1" vertex="1">
                    <mxGeometry x="157" y="40" width="670" height="60" as="geometry"/>
                </mxCell>
                <mxCell id="rgLIjj8zTQrlLB7u7Nb7-2" value="&lt;font style=&quot;font-size: 14px;&quot;&gt;&lt;b&gt;Logo&lt;/b&gt;&lt;/font&gt;" style="rounded=1;whiteSpace=wrap;html=1;fillColor=none;" parent="1" vertex="1">
                    <mxGeometry y="40" width="120" height="60" as="geometry"/>
                </mxCell>
                <mxCell id="rgLIjj8zTQrlLB7u7Nb7-3" value="" style="endArrow=none;html=1;" parent="1" edge="1">
                    <mxGeometry width="50" height="50" relative="1" as="geometry">
                        <mxPoint x="2" y="1040" as="sourcePoint"/>
                        <mxPoint x="822" y="1040" as="targetPoint"/>
                        <Array as="points"/>
                    </mxGeometry>
                </mxCell>
                <mxCell id="rgLIjj8zTQrlLB7u7Nb7-4" value="&lt;font style=&quot;font-size: 14px;&quot;&gt;Footer&lt;/font&gt;" style="text;html=1;align=center;verticalAlign=middle;resizable=0;points=[];autosize=1;strokeColor=none;fillColor=none;" parent="1" vertex="1">
                    <mxGeometry x="350" y="1088" width="60" height="30" as="geometry"/>
                </mxCell>
                <mxCell id="rgLIjj8zTQrlLB7u7Nb7-5" value="" style="rounded=0;whiteSpace=wrap;html=1;fillColor=none;" parent="1" vertex="1">
                    <mxGeometry x="20" y="190" width="790" height="830" as="geometry"/>
                </mxCell>
                <mxCell id="rgLIjj8zTQrlLB7u7Nb7-11" value="&lt;font style=&quot;font-size: 14px;&quot;&gt;Nav bar hoover&lt;/font&gt;" style="rounded=1;whiteSpace=wrap;html=1;fillColor=none;dashed=1;dashPattern=12 12;" parent="1" vertex="1">
                    <mxGeometry x="30" y="110" width="770" height="60" as="geometry"/>
                </mxCell>
                <mxCell id="rgLIjj8zTQrlLB7u7Nb7-16" value="&lt;b&gt;&lt;font style=&quot;font-size: 14px;&quot;&gt;Stats&lt;/font&gt;&lt;/b&gt;" style="rounded=1;whiteSpace=wrap;html=1;fillColor=none;" parent="1" vertex="1">
                    <mxGeometry x="59" y="230" width="710" height="230" as="geometry"/>
                </mxCell>
                <mxCell id="rgLIjj8zTQrlLB7u7Nb7-17" value="&lt;b&gt;&lt;font style=&quot;font-size: 14px;&quot;&gt;Stuff&lt;/font&gt;&lt;/b&gt;" style="rounded=1;whiteSpace=wrap;html=1;fillColor=none;" parent="1" vertex="1">
                    <mxGeometry x="60" y="500" width="710" height="480" as="geometry"/>
                </mxCell>
            </root>
        </mxGraphModel>
    </diagram>
    <diagram id="aLMh6Y_TUWXBd4otZDwS" name="Event Page">
        <mxGraphModel dx="1963" dy="768" grid="1" gridSize="10" guides="1" tooltips="1" connect="1" arrows="1" fold="1" page="1" pageScale="1" pageWidth="827" pageHeight="1169" math="0" shadow="0">
            <root>
                <mxCell id="0"/>
                <mxCell id="1" parent="0"/>
                <mxCell id="sEG3rshPoHR5zG7W9FFg-1" value="&lt;font style=&quot;font-size: 14px;&quot;&gt;&lt;b&gt;Nav bar&lt;/b&gt;&lt;/font&gt;" style="rounded=1;whiteSpace=wrap;html=1;fillColor=none;" parent="1" vertex="1">
                    <mxGeometry x="157" y="40" width="670" height="60" as="geometry"/>
                </mxCell>
                <mxCell id="sEG3rshPoHR5zG7W9FFg-2" value="&lt;font style=&quot;font-size: 14px;&quot;&gt;&lt;b&gt;Logo&lt;/b&gt;&lt;/font&gt;" style="rounded=1;whiteSpace=wrap;html=1;fillColor=none;" parent="1" vertex="1">
                    <mxGeometry y="40" width="120" height="60" as="geometry"/>
                </mxCell>
                <mxCell id="sEG3rshPoHR5zG7W9FFg-3" value="" style="endArrow=none;html=1;" parent="1" edge="1">
                    <mxGeometry width="50" height="50" relative="1" as="geometry">
                        <mxPoint x="2" y="1040" as="sourcePoint"/>
                        <mxPoint x="822" y="1040" as="targetPoint"/>
                        <Array as="points"/>
                    </mxGeometry>
                </mxCell>
                <mxCell id="sEG3rshPoHR5zG7W9FFg-4" value="&lt;font style=&quot;font-size: 14px;&quot;&gt;Footer&lt;/font&gt;" style="text;html=1;align=center;verticalAlign=middle;resizable=0;points=[];autosize=1;strokeColor=none;fillColor=none;" parent="1" vertex="1">
                    <mxGeometry x="350" y="1088" width="60" height="30" as="geometry"/>
                </mxCell>
                <mxCell id="sEG3rshPoHR5zG7W9FFg-5" value="" style="rounded=0;whiteSpace=wrap;html=1;fillColor=none;" parent="1" vertex="1">
                    <mxGeometry x="20" y="190" width="790" height="830" as="geometry"/>
                </mxCell>
                <mxCell id="sEG3rshPoHR5zG7W9FFg-11" value="&lt;font style=&quot;font-size: 14px;&quot;&gt;Nav bar hoover&lt;/font&gt;" style="rounded=1;whiteSpace=wrap;html=1;fillColor=none;dashed=1;dashPattern=12 12;" parent="1" vertex="1">
                    <mxGeometry x="30" y="110" width="770" height="60" as="geometry"/>
                </mxCell>
                <mxCell id="bz8EETlVMrQQDvkU8lB5-1" value="" style="rounded=1;whiteSpace=wrap;html=1;fillColor=none;" parent="1" vertex="1">
                    <mxGeometry x="119" y="210" width="590" height="790" as="geometry"/>
                </mxCell>
                <mxCell id="bz8EETlVMrQQDvkU8lB5-2" value="&lt;font style=&quot;font-size: 16px;&quot;&gt;&lt;b style=&quot;&quot;&gt;Title&lt;/b&gt;&lt;/font&gt;" style="text;html=1;align=center;verticalAlign=middle;whiteSpace=wrap;rounded=0;" parent="1" vertex="1">
                    <mxGeometry x="385" y="220" width="60" height="30" as="geometry"/>
                </mxCell>
                <mxCell id="KMme3T3T0iURqa-8Fyfe-1" value="&lt;font style=&quot;font-size: 14px;&quot;&gt;&lt;b&gt;Image&lt;/b&gt;&lt;/font&gt;" style="rounded=1;whiteSpace=wrap;html=1;fillColor=none;dashed=1;dashPattern=12 12;" parent="1" vertex="1">
                    <mxGeometry x="139" y="290" width="550" height="170" as="geometry"/>
                </mxCell>
                <mxCell id="KMme3T3T0iURqa-8Fyfe-24" value="&lt;font style=&quot;font-size: 14px;&quot;&gt;&lt;b&gt;Join event&lt;/b&gt;&lt;/font&gt;" style="rounded=1;whiteSpace=wrap;html=1;fillColor=none;container=0;" parent="1" vertex="1">
                    <mxGeometry x="355" y="940" width="117.45" height="38.53" as="geometry"/>
                </mxCell>
                <mxCell id="KMme3T3T0iURqa-8Fyfe-25" value="&lt;font style=&quot;font-size: 14px;&quot;&gt;&lt;b&gt;Description&lt;/b&gt;&lt;/font&gt;" style="rounded=1;whiteSpace=wrap;html=1;fillColor=none;strokeColor=default;dashed=1;dashPattern=12 12;" parent="1" vertex="1">
                    <mxGeometry x="139" y="800" width="550" height="120" as="geometry"/>
                </mxCell>
                <mxCell id="KMme3T3T0iURqa-8Fyfe-26" value="&lt;b&gt;&lt;font style=&quot;font-size: 14px;&quot;&gt;Tag&lt;/font&gt;&lt;/b&gt;" style="text;html=1;align=center;verticalAlign=middle;whiteSpace=wrap;rounded=0;" parent="1" vertex="1">
                    <mxGeometry x="384" y="250" width="60" height="30" as="geometry"/>
                </mxCell>
                <mxCell id="KMme3T3T0iURqa-8Fyfe-31" value="&lt;b&gt;&lt;font style=&quot;font-size: 14px;&quot;&gt;Team players&lt;/font&gt;&lt;/b&gt;" style="rounded=1;whiteSpace=wrap;html=1;fillColor=none;" parent="1" vertex="1">
                    <mxGeometry x="140" y="660" width="550" height="120" as="geometry"/>
                </mxCell>
                <mxCell id="KMme3T3T0iURqa-8Fyfe-32" value="&lt;b&gt;&lt;font style=&quot;font-size: 14px;&quot;&gt;Date&lt;/font&gt;&lt;/b&gt;" style="rounded=1;whiteSpace=wrap;html=1;fillColor=none;" parent="1" vertex="1">
                    <mxGeometry x="140" y="480" width="260" height="40" as="geometry"/>
                </mxCell>
                <mxCell id="KMme3T3T0iURqa-8Fyfe-33" value="&lt;b&gt;&lt;font style=&quot;font-size: 14px;&quot;&gt;Server&lt;/font&gt;&lt;/b&gt;" style="rounded=1;whiteSpace=wrap;html=1;fillColor=none;" parent="1" vertex="1">
                    <mxGeometry x="429" y="480" width="259" height="40" as="geometry"/>
                </mxCell>
                <mxCell id="KMme3T3T0iURqa-8Fyfe-35" value="&lt;b&gt;&lt;font style=&quot;font-size: 14px;&quot;&gt;Duration&lt;/font&gt;&lt;/b&gt;" style="rounded=1;whiteSpace=wrap;html=1;fillColor=none;" parent="1" vertex="1">
                    <mxGeometry x="139" y="540" width="260" height="40" as="geometry"/>
                </mxCell>
                <mxCell id="KMme3T3T0iURqa-8Fyfe-36" value="&lt;b&gt;&lt;font style=&quot;font-size: 14px;&quot;&gt;Max players&lt;/font&gt;&lt;/b&gt;" style="rounded=1;whiteSpace=wrap;html=1;fillColor=none;" parent="1" vertex="1">
                    <mxGeometry x="429" y="540" width="260" height="40" as="geometry"/>
                </mxCell>
                <mxCell id="ac6n85NY8A-nPxyjBi1m-1" value="&lt;b&gt;&lt;font style=&quot;font-size: 14px;&quot;&gt;Area&lt;/font&gt;&lt;/b&gt;" style="rounded=1;whiteSpace=wrap;html=1;fillColor=none;" vertex="1" parent="1">
                    <mxGeometry x="139" y="600" width="171" height="40" as="geometry"/>
                </mxCell>
                <mxCell id="ac6n85NY8A-nPxyjBi1m-2" value="&lt;b&gt;&lt;font style=&quot;font-size: 14px;&quot;&gt;Sub_area&lt;/font&gt;&lt;/b&gt;&lt;span style=&quot;font-family: monospace; font-size: 0px; text-align: start; text-wrap-mode: nowrap;&quot;&gt;%3CmxGraphModel%3E%3Croot%3E%3CmxCell%20id%3D%220%22%2F%3E%3CmxCell%20id%3D%221%22%20parent%3D%220%22%2F%3E%3CmxCell%20id%3D%222%22%20value%3D%22%26lt%3Bb%26gt%3B%26lt%3Bfont%20style%3D%26quot%3Bfont-size%3A%2014px%3B%26quot%3B%26gt%3BArea%26lt%3B%2Ffont%26gt%3B%26lt%3B%2Fb%26gt%3B%22%20style%3D%22rounded%3D1%3BwhiteSpace%3Dwrap%3Bhtml%3D1%3BfillColor%3Dnone%3B%22%20vertex%3D%221%22%20parent%3D%221%22%3E%3CmxGeometry%20x%3D%22139%22%20y%3D%22600%22%20width%3D%22141%22%20height%3D%2240%22%20as%3D%22geometry%22%2F%3E%3C%2FmxCell%3E%3C%2Froot%3E%3C%2FmxGraphModel%3E&lt;/span&gt;" style="rounded=1;whiteSpace=wrap;html=1;fillColor=none;" vertex="1" parent="1">
                    <mxGeometry x="330" y="600" width="170" height="40" as="geometry"/>
                </mxCell>
                <mxCell id="ac6n85NY8A-nPxyjBi1m-3" value="&lt;b&gt;&lt;font style=&quot;font-size: 14px;&quot;&gt;Donjon&lt;/font&gt;&lt;/b&gt;" style="rounded=1;whiteSpace=wrap;html=1;fillColor=none;" vertex="1" parent="1">
                    <mxGeometry x="520" y="600" width="168" height="40" as="geometry"/>
                </mxCell>
            </root>
        </mxGraphModel>
    </diagram>
</mxfile>